<?xml version="1.0" standalone="no"?>
<!DOCTYPE svg PUBLIC "-//W3C//DTD SVG 20010904//EN"
 "http://www.w3.org/TR/2001/REC-SVG-20010904/DTD/svg10.dtd">
<svg version="1.0" xmlns="http://www.w3.org/2000/svg"
 width="121.000000pt" height="62.000000pt" viewBox="0 0 471.000000 172.000000"
 preserveAspectRatio="xMidYMid meet">

<g transform="translate(0.000000,172.000000) scale(0.100000,-0.100000)"
fill="#000000" stroke="none">
<path d="M641 1373 c2 -15 1 -33 -3 -38 -3 -6 -9 -51 -13 -101 -4 -50 -10
-106 -14 -124 l-7 -34 -26 44 c-14 25 -42 78 -62 118 -20 39 -41 72 -46 72 -6
0 -10 9 -10 19 0 25 -29 36 -37 15 -3 -9 -1 -25 5 -34 13 -22 93 -282 88 -288
-2 -2 -45 33 -96 78 -51 45 -103 87 -116 92 -13 6 -24 17 -24 24 0 17 -32 27
-41 13 -9 -15 0 -39 15 -39 6 0 19 -17 28 -38 10 -20 49 -73 88 -116 39 -44
68 -81 66 -83 -2 -2 -54 12 -115 32 -62 20 -121 37 -131 38 -11 1 -22 7 -24
14 -6 16 -32 17 -41 3 -8 -13 14 -42 29 -37 6 2 17 -5 26 -15 8 -9 53 -40 98
-67 l84 -49 -89 -7 c-48 -3 -99 -9 -113 -12 -14 -4 -38 -7 -55 -7 -43 -1 -39
-29 5 -37 64 -13 214 -40 250 -46 34 -5 33 -6 -70 -59 -58 -30 -112 -58 -120
-63 -8 -5 -23 -12 -32 -15 -24 -7 -23 -36 1 -36 11 0 23 5 26 10 3 6 17 10 30
10 14 0 68 14 120 31 53 17 101 29 107 27 6 -2 -17 -35 -52 -73 -34 -39 -69
-80 -77 -92 -15 -23 -12 -53 6 -53 6 0 54 36 108 79 54 44 99 75 101 70 2 -5
-13 -59 -33 -119 -20 -61 -34 -117 -31 -125 3 -9 -1 -15 -10 -15 -10 0 -14 -8
-12 -22 4 -28 31 -30 36 -3 3 11 11 24 18 28 8 5 37 53 65 109 28 55 53 98 56
95 3 -3 9 -59 14 -124 5 -65 13 -119 19 -121 5 -2 5 -11 -3 -22 -8 -15 -9 -22
0 -31 16 -16 35 -1 31 24 -1 12 0 27 4 32 3 6 12 65 19 132 6 68 16 120 21
117 5 -3 36 -59 68 -125 33 -65 64 -119 69 -119 5 0 11 -9 14 -20 7 -26 37
-26 37 0 0 11 -6 23 -13 26 -8 3 -14 11 -14 19 0 8 -15 64 -33 125 -18 60 -31
113 -27 116 3 3 45 -28 93 -70 48 -42 92 -75 98 -73 29 9 13 47 -55 130 -39
48 -70 89 -68 91 2 2 56 -14 119 -35 63 -22 122 -38 131 -37 9 2 24 -3 33 -11
12 -10 20 -11 28 -3 16 16 1 45 -21 39 -11 -3 -22 0 -24 7 -3 6 -59 40 -126
75 -66 35 -119 67 -116 71 2 4 64 10 136 14 143 8 159 11 159 32 0 22 -30 31
-124 39 -157 13 -157 14 -28 79 62 31 115 63 118 71 4 8 10 13 14 10 13 -8 40
6 40 20 0 19 -33 28 -45 13 -5 -8 -19 -14 -30 -15 -11 -1 -74 -18 -139 -37
-65 -20 -120 -35 -123 -33 -2 2 35 48 82 101 79 91 103 136 72 136 -16 0 -80
-45 -154 -108 -65 -54 -66 -48 -18 99 19 60 35 114 35 120 0 6 7 17 15 26 21
20 1 50 -21 32 -8 -6 -14 -16 -14 -21 0 -5 -11 -24 -24 -41 -13 -18 -47 -78
-77 -134 -30 -57 -57 -103 -60 -103 -4 0 -10 57 -14 128 -3 70 -9 134 -12 142
-4 8 -7 26 -7 40 -1 15 -8 26 -19 28 -15 3 -18 -2 -16 -25z"/>
<path d="M1044 1209 c-9 -15 12 -33 30 -26 9 4 16 13 16 22 0 17 -35 21 -46 4z"/>
<path d="M3513 1005 c-45 -19 -66 -66 -71 -160 -8 -145 29 -215 112 -215 64 0
96 38 96 116 0 32 -2 34 -35 34 -30 0 -35 -3 -35 -23 0 -13 -6 -32 -14 -43
-14 -18 -16 -18 -33 -1 -36 35 -26 227 12 227 17 0 35 -31 35 -59 0 -17 6 -21
35 -21 33 0 35 2 35 35 0 51 -24 102 -52 110 -48 14 -54 14 -85 0z"/>
<path d="M4303 1013 c-40 -8 -63 -49 -63 -113 0 -76 23 -108 83 -112 l42 -3 0
-45 c0 -38 -3 -45 -20 -45 -15 0 -21 8 -23 33 -3 30 -6 32 -39 32 l-36 0 6
-47 c6 -60 33 -83 93 -83 72 0 102 45 91 137 -6 56 -31 83 -86 90 -41 6 -41 6
-41 49 0 37 3 44 19 44 20 0 31 -18 31 -51 0 -15 7 -19 35 -19 31 0 35 3 35
25 0 76 -54 122 -127 108z"/>
<path d="M1360 980 c0 -25 4 -30 25 -30 l24 0 3 -157 3 -158 32 -3 32 -3 3
158 3 158 28 3 c23 3 27 8 27 33 l0 29 -90 0 -90 0 0 -30z"/>
<path d="M1604 997 c-2 -7 -3 -91 -2 -187 l3 -175 33 -3 32 -3 0 190 0 191
-30 0 c-17 0 -33 -6 -36 -13z"/>
<path d="M1750 820 l0 -190 35 0 35 0 1 78 0 77 28 -75 c28 -73 29 -75 62 -75
l34 0 0 185 0 185 -32 3 -33 3 0 -77 c0 -90 -8 -88 -40 9 -21 65 -22 67 -56
67 l-34 0 0 -190z"/>
<path d="M2030 996 c0 -8 14 -51 30 -96 25 -69 30 -96 30 -176 l0 -94 35 0 35
0 0 94 c0 82 4 105 35 187 19 52 35 95 35 97 0 1 -15 2 -33 2 -30 0 -35 -4
-53 -47 l-20 -48 -15 45 c-14 39 -20 45 -47 48 -23 2 -32 -1 -32 -12z"/>
<path d="M2462 823 l3 -188 28 -3 27 -3 1 73 1 73 22 -70 c31 -97 51 -96 82 5
l23 75 0 -78 1 -78 28 3 27 3 0 185 0 185 -41 3 -42 3 -12 -68 c-7 -37 -16
-77 -20 -88 -9 -23 -8 -24 -33 90 l-12 60 -43 3 -42 3 2 -188z"/>
<path d="M2782 823 l3 -188 33 -3 32 -3 0 190 0 191 -35 0 -35 0 2 -187z"/>
<path d="M2930 819 l0 -190 33 3 c31 3 32 5 35 51 2 32 7 47 17 47 19 0 35
-32 35 -69 0 -29 3 -31 35 -31 l35 0 0 48 c0 26 -7 57 -15 69 -13 19 -13 25 0
57 45 108 -16 206 -127 206 l-48 0 0 -191z m120 75 c14 -36 -12 -93 -42 -94
-5 0 -8 32 -8 70 0 68 1 70 20 60 12 -6 25 -22 30 -36z"/>
<path d="M3235 978 c-14 -81 -45 -305 -45 -326 0 -20 4 -23 33 -20 24 2 33 8
35 26 2 16 10 22 27 22 17 0 25 -6 27 -22 2 -18 11 -24 36 -26 l34 -3 -7 53
c-4 29 -17 114 -28 188 l-22 135 -42 3 c-40 3 -42 2 -48 -30z m59 -190 c6 -40
5 -48 -8 -48 -17 0 -21 35 -10 78 8 29 10 27 18 -30z"/>
<path d="M3730 821 l0 -191 90 0 90 0 0 30 c0 30 -1 30 -55 30 l-54 0 -3 158
-3 157 -32 3 -33 3 0 -190z"/>
<path d="M3990 820 l0 -190 85 0 85 0 0 35 0 35 -50 0 -50 0 0 40 0 40 50 0
50 0 0 34 c0 34 -1 35 -47 38 l-48 3 -3 43 -3 42 50 0 51 0 0 35 0 35 -85 0
-85 0 0 -190z"/>
<path d="M1200 800 c0 -23 22 -27 39 -7 13 16 5 27 -21 27 -11 0 -18 -7 -18
-20z"/>
<path d="M236 445 c-6 -17 17 -31 34 -20 5 3 10 13 10 21 0 19 -36 18 -44 -1z"/>
<path d="M1007 433 c-10 -15 10 -35 29 -31 26 5 24 32 -3 36 -11 2 -23 -1 -26
-5z"/>
</g>
</svg>
